<svg width="53" height="69" viewBox="0 0 53 69" fill="none" xmlns="http://www.w3.org/2000/svg">
<path d="M46.5547 27.7188C47.5286 27.7188 48.4362 27.9622 49.2773 28.4492C50.1185 28.9362 50.8047 29.6224 51.3359 30.5078C51.8672 31.3932 52.1328 32.3672 52.1328 33.4297C52.1328 39.0078 52.1328 43.5677 52.1328 47.1094C52.1328 47.6406 52.1328 48.7917 52.1328 50.5625C52.1328 52.3333 52.1328 53.8385 52.1328 55.0781C52.1328 58.8854 50.8711 62.1393 48.3477 64.8398C45.8242 67.5404 42.7474 68.8906 39.1172 68.8906H25.0391C22.6484 68.8906 20.4349 68.2487 18.3984 66.9648C16.362 65.681 14.7682 63.9323 13.6172 61.7188L1.13281 37.6797C0.867188 37.1484 0.955729 36.7057 1.39844 36.3516L2.72656 35.2891C4.32031 33.7839 6.17969 33.1198 8.30469 33.2969C10.4297 33.474 12.1562 34.4036 13.4844 36.0859L14.9453 37.8125L15.0781 11.6484C15.0781 10.1432 15.6094 8.81511 16.6719 7.66406C17.7344 6.51302 19.0182 5.9375 20.5234 5.9375C21.4974 5.9375 22.4049 6.20312 23.2461 6.73438C24.0872 7.26562 24.7513 7.97396 25.2383 8.85938C25.7253 9.74479 25.9688 10.7188 25.9688 11.7812V24.9297C26.9427 24.2214 28.0052 23.8672 29.1562 23.8672C31.3698 23.8672 33.0078 24.8854 34.0703 26.9219C35.1328 25.8594 36.3724 25.3281 37.7891 25.3281C38.9401 25.3281 40.0026 25.6823 40.9766 26.3906C41.9505 27.099 42.6146 27.9844 42.9688 29.0469C43.9427 28.1615 45.138 27.7188 46.5547 27.7188ZM49.7422 46.9766C49.7422 42.0182 49.7422 37.5026 49.7422 33.4297C49.7422 32.4557 49.4323 31.6367 48.8125 30.9727C48.1927 30.3086 47.4401 29.9766 46.5547 29.9766C45.6693 29.9766 44.8945 30.3086 44.2305 30.9727C43.5664 31.6367 43.2344 32.4557 43.2344 33.4297V36.2188C43.2344 36.9271 42.8581 37.2812 42.1055 37.2812C41.3529 37.2812 40.9766 36.9271 40.9766 36.2188V31.0391C40.9766 30.0651 40.6667 29.2461 40.0469 28.582C39.4271 27.918 38.6966 27.5859 37.8555 27.5859C37.0143 27.5859 36.2839 27.918 35.6641 28.582C35.0443 29.2461 34.7344 30.0651 34.7344 31.0391V36.4844C34.7344 37.2812 34.3581 37.6797 33.6055 37.6797C32.8529 37.6797 32.4766 37.2812 32.4766 36.4844V29.5781C32.4766 28.6042 32.1445 27.7852 31.4805 27.1211C30.8164 26.457 30.0417 26.125 29.1562 26.125C28.2708 26.125 27.5182 26.457 26.8984 27.1211C26.2786 27.7852 25.9688 28.5599 25.9688 29.4453V37.2812C25.9688 37.9896 25.5924 38.3438 24.8398 38.3438C24.0872 38.3438 23.7109 37.9896 23.7109 37.2812V29.7109C23.7109 29.7109 23.7109 29.6667 23.7109 29.5781C23.7109 29.5781 23.7109 29.5339 23.7109 29.4453V11.7812C23.7109 10.8073 23.401 9.96614 22.7812 9.25781C22.1615 8.54948 21.4089 8.19531 20.5234 8.19531C19.638 8.19531 18.8854 8.54948 18.2656 9.25781C17.6458 9.96614 17.3359 10.763 17.3359 11.6484V41C17.3359 41.5312 17.0703 41.8854 16.5391 42.0625C16.0078 42.2396 15.5651 42.151 15.2109 41.7969L11.7578 37.5469C10.7839 36.3073 9.54427 35.6432 8.03906 35.5547C6.6224 35.4661 5.38281 35.9089 4.32031 36.8828L4.1875 37.0156L3.65625 37.4141L15.7422 60.6562C16.6276 62.5156 17.9115 63.9766 19.5938 65.0391C21.276 66.1016 23.0911 66.6328 25.0391 66.6328H39.1172C42.0391 66.6328 44.5404 65.5039 46.6211 63.2461C48.7018 60.9883 49.7422 58.2656 49.7422 55.0781C49.7422 53.75 49.7422 52.1562 49.7422 50.2969C49.7422 48.4375 49.7422 47.3307 49.7422 46.9766ZM12.5547 11.1172C12.5547 11.8255 12.1784 12.1797 11.4258 12.1797C10.6732 12.1797 10.2969 11.8255 10.2969 11.1172C10.2969 8.28386 11.293 5.87109 13.2852 3.87891C15.2773 1.88672 17.668 0.890625 20.457 0.890625C23.2461 0.890625 25.6367 1.88672 27.6289 3.87891C29.6211 5.87109 30.6172 8.28386 30.6172 11.1172C30.6172 11.8255 30.2409 12.1797 29.4883 12.1797C28.7357 12.1797 28.3594 11.8255 28.3594 11.1172C28.3594 8.90364 27.5846 7.02214 26.0352 5.47266C24.4857 3.92318 22.6042 3.14844 20.3906 3.14844C19.3281 3.14844 18.3099 3.36979 17.3359 3.8125C16.362 4.25521 15.5208 4.83073 14.8125 5.53906C14.1042 6.24739 13.5508 7.08854 13.1523 8.0625C12.7539 9.03646 12.5547 10.0547 12.5547 11.1172Z" fill="#777777"/>
</svg>
