<svg width="69" height="69" viewBox="0 0 69 69" fill="none" xmlns="http://www.w3.org/2000/svg">
<path d="M56.7912 21.9003C56.7912 23.1384 57.7949 24.142 59.033 24.142C60.2713 24.142 61.2747 23.1384 61.2747 21.9003H56.7912ZM21.8062 64.2638C23.0443 64.2638 24.0479 63.2601 24.0479 62.022C24.0479 60.784 23.0443 59.7803 21.8062 59.7803V64.2638ZM61.2747 21.9003V14.3971H56.7912V21.9003H61.2747ZM59.7515 10.7072L50.6294 1.54094L47.4514 4.70366L56.5736 13.8699L59.7515 10.7072ZM46.9218 0H6.72539V4.48352H46.9218V0ZM0.000113576 6.72525L0 57.5385H4.48351L4.48363 6.72528L0.000113576 6.72525ZM6.72527 64.2638H21.8062V59.7803H6.72527V64.2638ZM0 57.5385C-5.97801e-06 61.2527 3.011 64.2638 6.72527 64.2638V59.7803C5.48719 59.7803 4.48351 58.7766 4.48351 57.5385H0ZM6.72539 0C3.01112 0 0.000122543 3.01101 0.000113576 6.72525L4.48363 6.72528C4.48363 5.4872 5.48731 4.48352 6.72539 4.48352V0ZM50.6294 1.54094C49.6475 0.554549 48.3132 0 46.9218 0V4.48352C47.1206 4.48352 47.311 4.56273 47.4514 4.70366L50.6294 1.54094ZM61.2747 14.3971C61.2747 13.0141 60.7271 11.6874 59.7515 10.7072L56.5736 13.8699C56.7132 14.01 56.7912 14.1995 56.7912 14.3971H61.2747Z" fill="#777777"/>
<path d="M14.1978 17.1875H45.8071" stroke="#71717A" stroke-width="1.25" stroke-linecap="round"/>
<path d="M14.1978 32.1309H29.8524" stroke="#71717A" stroke-width="1.25" stroke-linecap="round"/>
<path d="M14.1978 47.0762H20.9069" stroke="#71717A" stroke-width="1.25" stroke-linecap="round"/>
<path d="M51.5604 68.0002C60.6397 68.0002 68 60.64 68 51.5607C68 42.4813 60.6397 35.1211 51.5604 35.1211C42.4811 35.1211 35.1208 42.4813 35.1208 51.5607C35.1208 60.64 42.4811 68.0002 51.5604 68.0002Z" stroke="#71717A" stroke-width="1.5"/>
<path d="M45.5824 53.0542L48.8183 56.2901C49.4714 56.9432 50.5546 56.8535 51.0914 56.1021L57.5384 47.0762" stroke="#71717A" stroke-width="1.5" stroke-linecap="round" stroke-linejoin="round"/>
</svg>
